<mxfile host="app.diagrams.net" agent="Mozilla/5.0 (X11; Ubuntu; Linux x86_64; rv:137.0) Gecko/20100101 Firefox/137.0" version="26.2.9">
  <diagram name="Page-1" id="8OjTLe4-6mO5PBuG9KOq">
    <mxGraphModel dx="2867" dy="1069" grid="1" gridSize="10" guides="1" tooltips="1" connect="1" arrows="1" fold="1" page="1" pageScale="1" pageWidth="827" pageHeight="1169" math="0" shadow="0">
      <root>
        <mxCell id="0" />
        <mxCell id="1" parent="0" />
        <mxCell id="mKvuBzMbrmaQoShO6H8n-77" value="Output" style="rounded=0;whiteSpace=wrap;html=1;align=left;fillColor=#fad9d5;strokeColor=#ae4132;labelBackgroundColor=none;verticalAlign=top;fontSize=20;" parent="1" vertex="1">
          <mxGeometry x="-50" y="170" width="810" height="50" as="geometry" />
        </mxCell>
        <mxCell id="mKvuBzMbrmaQoShO6H8n-76" value="&lt;div&gt;Ensemble - Stacking Meta Model&lt;/div&gt;&lt;div&gt;[RELU]&lt;/div&gt;" style="rounded=0;whiteSpace=wrap;html=1;align=left;fillColor=#ffe6cc;strokeColor=#d79b00;labelBackgroundColor=none;verticalAlign=top;fontSize=20;" parent="1" vertex="1">
          <mxGeometry x="-51" y="230" width="810" height="220" as="geometry" />
        </mxCell>
        <mxCell id="mKvuBzMbrmaQoShO6H8n-75" value="Semantic Textual Similarity" style="rounded=0;whiteSpace=wrap;html=1;align=left;fillColor=#e1d5e7;strokeColor=#9673a6;labelBackgroundColor=none;verticalAlign=top;fontSize=20;" parent="1" vertex="1">
          <mxGeometry x="270" y="460" width="490" height="500" as="geometry" />
        </mxCell>
        <mxCell id="mKvuBzMbrmaQoShO6H8n-74" value="Roberta Large NLI" style="rounded=0;whiteSpace=wrap;html=1;align=left;fillColor=#d5e8d4;strokeColor=#82b366;labelBackgroundColor=none;verticalAlign=top;fontSize=20;" parent="1" vertex="1">
          <mxGeometry x="-50" y="460" width="310" height="500" as="geometry" />
        </mxCell>
        <mxCell id="mKvuBzMbrmaQoShO6H8n-73" value="Embeddings" style="rounded=0;whiteSpace=wrap;html=1;align=left;fillColor=#dae8fc;strokeColor=#6c8ebf;labelBackgroundColor=none;verticalAlign=top;fontSize=20;" parent="1" vertex="1">
          <mxGeometry x="-50" y="1070" width="810" height="90" as="geometry" />
        </mxCell>
        <mxCell id="mKvuBzMbrmaQoShO6H8n-72" value="&lt;span&gt;Input Layer&lt;/span&gt;" style="rounded=0;whiteSpace=wrap;html=1;align=left;fillColor=#fff2cc;strokeColor=#d6b656;labelBackgroundColor=none;verticalAlign=top;fontSize=20;" parent="1" vertex="1">
          <mxGeometry x="-50" y="970" width="810" height="80" as="geometry" />
        </mxCell>
        <mxCell id="mKvuBzMbrmaQoShO6H8n-53" style="edgeStyle=orthogonalEdgeStyle;rounded=0;orthogonalLoop=1;jettySize=auto;html=1;exitX=0.5;exitY=0;exitDx=0;exitDy=0;entryX=0.5;entryY=1;entryDx=0;entryDy=0;" parent="1" source="mKvuBzMbrmaQoShO6H8n-25" target="mKvuBzMbrmaQoShO6H8n-28" edge="1">
          <mxGeometry relative="1" as="geometry" />
        </mxCell>
        <mxCell id="mKvuBzMbrmaQoShO6H8n-25" value="(premise, hypothesis)" style="rounded=0;whiteSpace=wrap;html=1;" parent="1" vertex="1">
          <mxGeometry x="70" y="1082" width="120" height="60" as="geometry" />
        </mxCell>
        <mxCell id="mKvuBzMbrmaQoShO6H8n-69" style="edgeStyle=orthogonalEdgeStyle;rounded=0;orthogonalLoop=1;jettySize=auto;html=1;exitX=0.5;exitY=0;exitDx=0;exitDy=0;entryX=0.5;entryY=1;entryDx=0;entryDy=0;" parent="1" source="mKvuBzMbrmaQoShO6H8n-26" target="mKvuBzMbrmaQoShO6H8n-29" edge="1">
          <mxGeometry relative="1" as="geometry" />
        </mxCell>
        <mxCell id="mKvuBzMbrmaQoShO6H8n-26" value="premise" style="rounded=0;whiteSpace=wrap;html=1;" parent="1" vertex="1">
          <mxGeometry x="330" y="1078" width="120" height="60" as="geometry" />
        </mxCell>
        <mxCell id="mKvuBzMbrmaQoShO6H8n-68" style="edgeStyle=orthogonalEdgeStyle;rounded=0;orthogonalLoop=1;jettySize=auto;html=1;exitX=0.5;exitY=0;exitDx=0;exitDy=0;entryX=0.5;entryY=1;entryDx=0;entryDy=0;" parent="1" source="mKvuBzMbrmaQoShO6H8n-27" target="mKvuBzMbrmaQoShO6H8n-30" edge="1">
          <mxGeometry relative="1" as="geometry" />
        </mxCell>
        <mxCell id="mKvuBzMbrmaQoShO6H8n-27" value="hypothesis" style="rounded=0;whiteSpace=wrap;html=1;" parent="1" vertex="1">
          <mxGeometry x="580" y="1078" width="120" height="60" as="geometry" />
        </mxCell>
        <mxCell id="mKvuBzMbrmaQoShO6H8n-54" style="edgeStyle=orthogonalEdgeStyle;rounded=0;orthogonalLoop=1;jettySize=auto;html=1;exitX=0.5;exitY=0;exitDx=0;exitDy=0;entryX=0.5;entryY=1;entryDx=0;entryDy=0;" parent="1" source="mKvuBzMbrmaQoShO6H8n-28" target="mKvuBzMbrmaQoShO6H8n-31" edge="1">
          <mxGeometry relative="1" as="geometry" />
        </mxCell>
        <mxCell id="mKvuBzMbrmaQoShO6H8n-28" value="Sequence Classification Tokens" style="rounded=1;whiteSpace=wrap;html=1;" parent="1" vertex="1">
          <mxGeometry x="70" y="980" width="120" height="60" as="geometry" />
        </mxCell>
        <mxCell id="mKvuBzMbrmaQoShO6H8n-64" style="edgeStyle=orthogonalEdgeStyle;rounded=0;orthogonalLoop=1;jettySize=auto;html=1;exitX=0.5;exitY=0;exitDx=0;exitDy=0;entryX=0.5;entryY=1;entryDx=0;entryDy=0;" parent="1" source="mKvuBzMbrmaQoShO6H8n-29" target="mKvuBzMbrmaQoShO6H8n-32" edge="1">
          <mxGeometry relative="1" as="geometry" />
        </mxCell>
        <mxCell id="mKvuBzMbrmaQoShO6H8n-29" value="Sequence Tokens" style="rounded=1;whiteSpace=wrap;html=1;" parent="1" vertex="1">
          <mxGeometry x="330" y="980" width="120" height="60" as="geometry" />
        </mxCell>
        <mxCell id="mKvuBzMbrmaQoShO6H8n-67" style="edgeStyle=orthogonalEdgeStyle;rounded=0;orthogonalLoop=1;jettySize=auto;html=1;exitX=0.5;exitY=0;exitDx=0;exitDy=0;entryX=0.5;entryY=1;entryDx=0;entryDy=0;" parent="1" source="mKvuBzMbrmaQoShO6H8n-30" target="mKvuBzMbrmaQoShO6H8n-33" edge="1">
          <mxGeometry relative="1" as="geometry" />
        </mxCell>
        <mxCell id="mKvuBzMbrmaQoShO6H8n-30" value="Sequence Tokens" style="rounded=1;whiteSpace=wrap;html=1;" parent="1" vertex="1">
          <mxGeometry x="580" y="980" width="120" height="60" as="geometry" />
        </mxCell>
        <mxCell id="mKvuBzMbrmaQoShO6H8n-55" style="edgeStyle=orthogonalEdgeStyle;rounded=0;orthogonalLoop=1;jettySize=auto;html=1;exitX=0.5;exitY=0;exitDx=0;exitDy=0;" parent="1" source="mKvuBzMbrmaQoShO6H8n-31" target="mKvuBzMbrmaQoShO6H8n-40" edge="1">
          <mxGeometry relative="1" as="geometry" />
        </mxCell>
        <mxCell id="mKvuBzMbrmaQoShO6H8n-31" value="RoBERTa Large" style="rounded=1;whiteSpace=wrap;html=1;glass=0;shadow=0;" parent="1" vertex="1">
          <mxGeometry x="30" y="670" width="200" height="250" as="geometry" />
        </mxCell>
        <mxCell id="mKvuBzMbrmaQoShO6H8n-65" style="edgeStyle=orthogonalEdgeStyle;rounded=0;orthogonalLoop=1;jettySize=auto;html=1;exitX=0.5;exitY=0;exitDx=0;exitDy=0;entryX=0.5;entryY=1;entryDx=0;entryDy=0;" parent="1" source="mKvuBzMbrmaQoShO6H8n-32" target="mKvuBzMbrmaQoShO6H8n-34" edge="1">
          <mxGeometry relative="1" as="geometry" />
        </mxCell>
        <mxCell id="mKvuBzMbrmaQoShO6H8n-32" value="RoBERTa Base" style="rounded=1;whiteSpace=wrap;html=1;" parent="1" vertex="1">
          <mxGeometry x="290" y="820" width="200" height="130" as="geometry" />
        </mxCell>
        <mxCell id="mKvuBzMbrmaQoShO6H8n-66" style="edgeStyle=orthogonalEdgeStyle;rounded=0;orthogonalLoop=1;jettySize=auto;html=1;exitX=0.5;exitY=0;exitDx=0;exitDy=0;entryX=0.5;entryY=1;entryDx=0;entryDy=0;" parent="1" source="mKvuBzMbrmaQoShO6H8n-33" target="mKvuBzMbrmaQoShO6H8n-35" edge="1">
          <mxGeometry relative="1" as="geometry" />
        </mxCell>
        <mxCell id="mKvuBzMbrmaQoShO6H8n-33" value="RoBERTa Base" style="rounded=1;whiteSpace=wrap;html=1;" parent="1" vertex="1">
          <mxGeometry x="540" y="820" width="200" height="130" as="geometry" />
        </mxCell>
        <mxCell id="mKvuBzMbrmaQoShO6H8n-60" style="edgeStyle=orthogonalEdgeStyle;rounded=0;orthogonalLoop=1;jettySize=auto;html=1;exitX=0.5;exitY=0;exitDx=0;exitDy=0;entryX=0.5;entryY=1;entryDx=0;entryDy=0;" parent="1" source="mKvuBzMbrmaQoShO6H8n-34" target="mKvuBzMbrmaQoShO6H8n-38" edge="1">
          <mxGeometry relative="1" as="geometry">
            <Array as="points">
              <mxPoint x="390" y="680" />
              <mxPoint x="520" y="680" />
            </Array>
          </mxGeometry>
        </mxCell>
        <mxCell id="mKvuBzMbrmaQoShO6H8n-61" value="U" style="edgeLabel;html=1;align=center;verticalAlign=middle;resizable=0;points=[];" parent="mKvuBzMbrmaQoShO6H8n-60" vertex="1" connectable="0">
          <mxGeometry x="-0.8104" y="1" relative="1" as="geometry">
            <mxPoint as="offset" />
          </mxGeometry>
        </mxCell>
        <mxCell id="mKvuBzMbrmaQoShO6H8n-34" value="Mean Pooling" style="rounded=0;whiteSpace=wrap;html=1;" parent="1" vertex="1">
          <mxGeometry x="330" y="730" width="120" height="60" as="geometry" />
        </mxCell>
        <mxCell id="mKvuBzMbrmaQoShO6H8n-57" style="edgeStyle=orthogonalEdgeStyle;rounded=0;orthogonalLoop=1;jettySize=auto;html=1;exitX=0.5;exitY=0;exitDx=0;exitDy=0;" parent="1" source="mKvuBzMbrmaQoShO6H8n-35" edge="1">
          <mxGeometry relative="1" as="geometry">
            <mxPoint x="520" y="610" as="targetPoint" />
            <Array as="points">
              <mxPoint x="640" y="680" />
              <mxPoint x="521" y="680" />
              <mxPoint x="521" y="610" />
            </Array>
          </mxGeometry>
        </mxCell>
        <mxCell id="mKvuBzMbrmaQoShO6H8n-62" value="V" style="edgeLabel;html=1;align=center;verticalAlign=middle;resizable=0;points=[];" parent="mKvuBzMbrmaQoShO6H8n-57" vertex="1" connectable="0">
          <mxGeometry x="-0.806" y="4" relative="1" as="geometry">
            <mxPoint as="offset" />
          </mxGeometry>
        </mxCell>
        <mxCell id="mKvuBzMbrmaQoShO6H8n-35" value="Mean Pooling" style="rounded=0;whiteSpace=wrap;html=1;" parent="1" vertex="1">
          <mxGeometry x="580" y="730" width="120" height="60" as="geometry" />
        </mxCell>
        <mxCell id="mKvuBzMbrmaQoShO6H8n-63" style="edgeStyle=orthogonalEdgeStyle;rounded=0;orthogonalLoop=1;jettySize=auto;html=1;exitX=0.5;exitY=0;exitDx=0;exitDy=0;entryX=0.5;entryY=1;entryDx=0;entryDy=0;" parent="1" source="mKvuBzMbrmaQoShO6H8n-38" target="mKvuBzMbrmaQoShO6H8n-39" edge="1">
          <mxGeometry relative="1" as="geometry" />
        </mxCell>
        <mxCell id="mKvuBzMbrmaQoShO6H8n-38" value="(U, V, |U-V|)" style="rounded=0;whiteSpace=wrap;html=1;" parent="1" vertex="1">
          <mxGeometry x="460" y="600" width="120" height="60" as="geometry" />
        </mxCell>
        <mxCell id="mKvuBzMbrmaQoShO6H8n-39" value="Softmax Classifier" style="rounded=0;whiteSpace=wrap;html=1;" parent="1" vertex="1">
          <mxGeometry x="460" y="510" width="120" height="60" as="geometry" />
        </mxCell>
        <mxCell id="mKvuBzMbrmaQoShO6H8n-58" style="edgeStyle=orthogonalEdgeStyle;rounded=0;orthogonalLoop=1;jettySize=auto;html=1;exitX=0.5;exitY=0;exitDx=0;exitDy=0;entryX=0.5;entryY=1;entryDx=0;entryDy=0;" parent="1" source="mKvuBzMbrmaQoShO6H8n-40" target="mKvuBzMbrmaQoShO6H8n-41" edge="1">
          <mxGeometry relative="1" as="geometry">
            <Array as="points">
              <mxPoint x="130" y="410" />
              <mxPoint x="355" y="410" />
            </Array>
          </mxGeometry>
        </mxCell>
        <mxCell id="mKvuBzMbrmaQoShO6H8n-40" value="Softmax Classifier" style="rounded=0;whiteSpace=wrap;html=1;" parent="1" vertex="1">
          <mxGeometry x="70" y="540" width="120" height="60" as="geometry" />
        </mxCell>
        <mxCell id="mKvuBzMbrmaQoShO6H8n-51" style="edgeStyle=orthogonalEdgeStyle;rounded=0;orthogonalLoop=1;jettySize=auto;html=1;exitX=0.5;exitY=0;exitDx=0;exitDy=0;entryX=0.5;entryY=1;entryDx=0;entryDy=0;" parent="1" source="mKvuBzMbrmaQoShO6H8n-41" target="mKvuBzMbrmaQoShO6H8n-44" edge="1">
          <mxGeometry relative="1" as="geometry" />
        </mxCell>
        <mxCell id="mKvuBzMbrmaQoShO6H8n-41" value="Logit Concatenation" style="rounded=0;whiteSpace=wrap;html=1;" parent="1" vertex="1">
          <mxGeometry x="295" y="330" width="120" height="60" as="geometry" />
        </mxCell>
        <mxCell id="267rjMRqHdpbjbc2bOHq-10" style="edgeStyle=orthogonalEdgeStyle;rounded=0;orthogonalLoop=1;jettySize=auto;html=1;exitX=0.5;exitY=0;exitDx=0;exitDy=0;entryX=0.5;entryY=1;entryDx=0;entryDy=0;" edge="1" parent="1" source="mKvuBzMbrmaQoShO6H8n-44" target="267rjMRqHdpbjbc2bOHq-8">
          <mxGeometry relative="1" as="geometry" />
        </mxCell>
        <mxCell id="mKvuBzMbrmaQoShO6H8n-44" value="Dense" style="rounded=0;whiteSpace=wrap;html=1;" parent="1" vertex="1">
          <mxGeometry x="295" y="284" width="120" height="30" as="geometry" />
        </mxCell>
        <mxCell id="mKvuBzMbrmaQoShO6H8n-45" value="Softmax Classifier" style="rounded=0;whiteSpace=wrap;html=1;" parent="1" vertex="1">
          <mxGeometry x="294" y="180" width="120" height="30" as="geometry" />
        </mxCell>
        <mxCell id="mKvuBzMbrmaQoShO6H8n-46" value="" style="endArrow=classic;html=1;rounded=0;exitX=0.5;exitY=0;exitDx=0;exitDy=0;entryX=0.5;entryY=1;entryDx=0;entryDy=0;" parent="1" source="mKvuBzMbrmaQoShO6H8n-39" target="mKvuBzMbrmaQoShO6H8n-41" edge="1">
          <mxGeometry width="50" height="50" relative="1" as="geometry">
            <mxPoint x="380" y="540" as="sourcePoint" />
            <mxPoint x="430" y="490" as="targetPoint" />
            <Array as="points">
              <mxPoint x="520" y="410" />
              <mxPoint x="355" y="410" />
            </Array>
          </mxGeometry>
        </mxCell>
        <mxCell id="267rjMRqHdpbjbc2bOHq-1" value="&lt;div&gt;Preprocessing&lt;/div&gt;&lt;div&gt;and Tokenization&lt;/div&gt;" style="rounded=0;whiteSpace=wrap;html=1;align=left;fillColor=#f8cecc;strokeColor=#b85450;labelBackgroundColor=none;verticalAlign=top;fontSize=20;" vertex="1" parent="1">
          <mxGeometry x="-50" y="1178" width="810" height="80" as="geometry" />
        </mxCell>
        <mxCell id="267rjMRqHdpbjbc2bOHq-2" value="premise" style="rounded=0;whiteSpace=wrap;html=1;" vertex="1" parent="1">
          <mxGeometry x="190" y="1188" width="120" height="60" as="geometry" />
        </mxCell>
        <mxCell id="267rjMRqHdpbjbc2bOHq-3" value="hypothesis" style="rounded=0;whiteSpace=wrap;html=1;" vertex="1" parent="1">
          <mxGeometry x="455" y="1190" width="120" height="58" as="geometry" />
        </mxCell>
        <mxCell id="267rjMRqHdpbjbc2bOHq-9" style="edgeStyle=orthogonalEdgeStyle;rounded=0;orthogonalLoop=1;jettySize=auto;html=1;exitX=0.5;exitY=0;exitDx=0;exitDy=0;entryX=0.5;entryY=1;entryDx=0;entryDy=0;" edge="1" parent="1" source="267rjMRqHdpbjbc2bOHq-8" target="mKvuBzMbrmaQoShO6H8n-45">
          <mxGeometry relative="1" as="geometry" />
        </mxCell>
        <mxCell id="267rjMRqHdpbjbc2bOHq-8" value="Dense" style="rounded=0;whiteSpace=wrap;html=1;" vertex="1" parent="1">
          <mxGeometry x="295" y="240" width="120" height="30" as="geometry" />
        </mxCell>
        <mxCell id="267rjMRqHdpbjbc2bOHq-14" value="" style="endArrow=classic;html=1;rounded=0;exitX=0.5;exitY=0;exitDx=0;exitDy=0;entryX=0.5;entryY=1;entryDx=0;entryDy=0;" edge="1" parent="1" source="267rjMRqHdpbjbc2bOHq-2" target="mKvuBzMbrmaQoShO6H8n-25">
          <mxGeometry width="50" height="50" relative="1" as="geometry">
            <mxPoint x="-150" y="1120" as="sourcePoint" />
            <mxPoint x="-100" y="1070" as="targetPoint" />
          </mxGeometry>
        </mxCell>
        <mxCell id="267rjMRqHdpbjbc2bOHq-15" value="" style="endArrow=classic;html=1;rounded=0;exitX=0.5;exitY=0;exitDx=0;exitDy=0;entryX=0.5;entryY=1;entryDx=0;entryDy=0;" edge="1" parent="1" source="267rjMRqHdpbjbc2bOHq-2" target="mKvuBzMbrmaQoShO6H8n-26">
          <mxGeometry width="50" height="50" relative="1" as="geometry">
            <mxPoint x="-380" y="910" as="sourcePoint" />
            <mxPoint x="-330" y="860" as="targetPoint" />
          </mxGeometry>
        </mxCell>
        <mxCell id="267rjMRqHdpbjbc2bOHq-16" value="" style="endArrow=classic;html=1;rounded=0;exitX=0.5;exitY=0;exitDx=0;exitDy=0;entryX=0.5;entryY=1;entryDx=0;entryDy=0;" edge="1" parent="1" source="267rjMRqHdpbjbc2bOHq-3" target="mKvuBzMbrmaQoShO6H8n-25">
          <mxGeometry width="50" height="50" relative="1" as="geometry">
            <mxPoint x="-410" y="960" as="sourcePoint" />
            <mxPoint x="-360" y="910" as="targetPoint" />
          </mxGeometry>
        </mxCell>
        <mxCell id="267rjMRqHdpbjbc2bOHq-17" value="" style="endArrow=classic;html=1;rounded=0;entryX=0.5;entryY=1;entryDx=0;entryDy=0;" edge="1" parent="1" target="mKvuBzMbrmaQoShO6H8n-27">
          <mxGeometry width="50" height="50" relative="1" as="geometry">
            <mxPoint x="510" y="1190" as="sourcePoint" />
            <mxPoint x="-270" y="880" as="targetPoint" />
          </mxGeometry>
        </mxCell>
      </root>
    </mxGraphModel>
  </diagram>
</mxfile>
